<?xml version="1.0" standalone="no"?>
<!DOCTYPE svg PUBLIC "-//W3C//DTD SVG 1.1//EN" "http://www.w3.org/Graphics/SVG/1.1/DTD/svg11.dtd" >
<svg viewBox="0 -173 864 864">
  <g transform="matrix(1 0 0 -1 0 691)">
   <path fill="currentColor"
d="M801 596q63 -79 63 -181q0 -183 -110 -263t-322 -80t-322 80t-110 262q0 104 63 181q-23 120 9 197q102 -8 188 -76q82 22 172 22q91 0 171 -22q89 68 189 76q32 -77 9 -196zM432 126q318 0 318 180q0 36 -11 64t-28 44.5t-39 27t-41 14t-37 3.5q-20 0 -60.5 -4.5
t-101.5 -4.5t-101.5 4.5t-60.5 4.5q-18 0 -37 -3.5t-41 -14t-39 -27t-28 -44.5t-11 -64q0 -180 318 -180zM612 297q0 81 -45 81t-45 -81t45 -81t45 81zM342 297q0 81 -45 81t-45 -81t45 -81t45 81z" />
  </g>

</svg>
