<?xml version="1.0" standalone="no"?>
<!DOCTYPE svg PUBLIC "-//W3C//DTD SVG 1.1//EN" "http://www.w3.org/Graphics/SVG/1.1/DTD/svg11.dtd" >
<svg viewBox="0 -173 864 864">
  <g transform="matrix(1 0 0 -1 0 691)">
   <path fill="currentColor"
d="M864 666v-36h-144v-144h-36v144h-144v36h144v144h36v-144h144zM375 372q44 -32 61.5 -65t17.5 -82q0 -66 -60 -114.5t-163 -48.5q-97 0 -164 36.5t-67 96.5q0 64 65 113.5t157 49.5h39q-30 30 -30 62q0 23 11 43q-7 -1 -21 -1q-76 0 -124 47t-48 117q0 66 60 116t137 50
h226l-51 -37h-72q35 -13 54 -49t19 -81q0 -69 -64 -118q-27 -21 -35 -34t-8 -31q0 -14 20 -35.5t40 -34.5zM254 485q43 -1 69 38.5t18 96.5q-7 58 -43.5 98t-80.5 42t-69 -37t-18 -96q7 -58 43.5 -99t80.5 -43zM231 98q164 0 164 118q0 7 -2 23q-2 8 -5.5 14.5t-9 13.5
t-10 12t-14.5 12t-15 11t-18 13t-19 13q-25 7 -56 9q-66 0 -115 -35t-49 -83q0 -50 42.5 -85.5t106.5 -35.5z" />
  </g>

</svg>
