<?xml version="1.0" standalone="no"?>
<!DOCTYPE svg PUBLIC "-//W3C//DTD SVG 1.1//EN" "http://www.w3.org/Graphics/SVG/1.1/DTD/svg11.dtd" >
<svg viewBox="0 -173 864 864">
  <g transform="matrix(1 0 0 -1 0 691)">
   <path fill="currentColor"
d="M864 602q-18 -88 -129 -129q3 -20 3 -41q0 -149 -108 -254.5t-261 -105.5t-261 105.5t-108 254.5t108 254.5t261 105.5q55 0 108 -15v-213q-36 21 -81 21q-87 0 -142.5 -59t-55.5 -121q0 -58 43 -92t101 -34q83 0 145 55t62 134v279q14 -7 74 -42q42 -26 67 -39
t66.5 -25.5t83.5 -12.5q10 0 18 -8q6 -8 6 -18z" />
  </g>

</svg>
