<?xml version="1.0" standalone="no"?>
<!DOCTYPE svg PUBLIC "-//W3C//DTD SVG 1.1//EN" "http://www.w3.org/Graphics/SVG/1.1/DTD/svg11.dtd" >
<svg viewBox="0 -173 864 864">
  <g transform="matrix(1 0 0 -1 0 691)">
   <path fill="currentColor"
d="M864 709q-36 -54 -88 -92v-23q0 -71 -20.5 -142t-63 -136.5t-101.5 -115.5t-141.5 -80t-177.5 -30q-160 0 -272 72q21 -3 42 -3q115 0 220 84q-57 1 -102.5 35.5t-62.5 87.5q17 -3 33 -3q24 0 47 6q-61 12 -101.5 61t-40.5 113v2q38 -21 80 -22q-79 53 -79 147
q0 44 24 86q67 -81 161.5 -128.5t203.5 -53.5q-4 17 -4 41q0 73 51.5 125t125.5 52q76 0 130 -56q59 12 112 43q-20 -64 -78 -98q51 6 102 28z" />
  </g>

</svg>
